<svg height="511pt" viewBox="-27 0 511 511.99873" width="511pt" xmlns="http://www.w3.org/2000/svg"><path d="m165.628906 376.695312v127.804688h36.324219l27.003906-8.898438 27.007813 8.898438h36.324218v-127.804688zm0 0" fill="#efedee"/><path d="m292.289062 504.5 18.761719-75.230469-18.761719-52.574219h-126.660156l-16.582031 55.238282 16.582031 72.566406zm0 0" fill="#efedee"/><path d="m373.101562 504.5h-80.8125v-127.804688s80.8125 27.851563 80.8125 127.804688zm0 0" fill="#465059"/><path d="m165.628906 376.695312v127.804688h-80.816406c0-99.953125 80.816406-127.804688 80.816406-127.804688zm0 0" fill="#465059"/><path d="m165.628906 387.003906v-10.308594s-80.816406 27.851563-80.816406 127.804688h20c0-67.527344 36.882812-102.140625 60.816406-117.496094zm0 0" fill="#3c474d"/><path d="m201.953125 504.5c0-41.734375 12.625-86.277344 12.625-86.277344l14.378906-17.015625 14.378907 17.015625s12.628906 44.542969 12.628906 86.277344zm0 0" fill="#c0344a"/><path d="m259.117188 384.1875s-.699219 13.695312-15.78125 34.039062h-28.757813c-15.082031-20.34375-15.78125-34.039062-15.78125-34.039062zm0 0" fill="#da5b65"/><path d="m366.71875 22.304688c-8.480469-11.511719-22.910156-16.976563-36.898438-14.015626-19.195312 4.066407-52.019531 8.789063-100.863281 8.789063-55.945312 0-108.621093 20.726563-148.320312 58.355469-40.113281 38.027344-62.207031 88.703125-62.207031 142.691406h421.054687c0-85.566406-47.347656-161.316406-72.765625-195.820312zm0 0" fill="#c86d5c"/><path d="m68.433594 208.125c0-53.992188 22.089844-104.664062 62.203125-142.691406 22.984375-21.785156 50.320312-37.890625 80.117187-47.601563-49.09375 3.992188-94.753906 24.082031-130.117187 57.601563-40.113281 38.027344-62.207031 88.703125-62.207031 142.691406h421.054687c0-3.351562-.078125-6.683594-.222656-10zm0 0" fill="#ad4f3d"/><path d="m449.917969 221.285156c0 21.472656-17.410157 38.882813-38.882813 38.882813s-38.882812-17.410157-38.882812-38.882813 17.410156-38.882812 38.882812-38.882812 38.882813 17.410156 38.882813 38.882812zm0 0" fill="#dfb297"/><path d="m391.136719 139.605469c-7.257813-13.441407-19.292969-23.707031-33.773438-28.570313-86.464843-29.03125-166.8125 7.070313-245.675781-4.96875-12.386719-1.894531-24.757812 3.363282-32.183594 13.457032-20.5625 27.949218-32.625 61.941406-32.625 98.601562 0 95.320312 81.519532 172.59375 182.078125 172.59375 100.558594 0 182.078125-77.273438 182.078125-172.59375 0-28.277344-7.179687-54.964844-19.898437-78.519531zm0 0" fill="#fbc4ac"/><path d="m76.882812 218.125c0-36.664062 12.058594-70.652344 32.625-98.601562 4.066407-5.53125 9.621094-9.59375 15.847657-11.839844-4.5625-.398438-9.117188-.925782-13.667969-1.621094-12.386719-1.890625-24.757812 3.367188-32.179688 13.460938-13.738281 18.671874-23.675781 40.039062-28.761718 63.097656-1.195313-.140625-2.476563-.214844-3.867188-.214844-21.472656 0-38.878906 17.40625-38.878906 38.878906s17.40625 38.882813 38.878906 38.882813c1.980469 0 3.75-.152344 5.339844-.4375 19.644531 75.21875 91.316406 130.988281 176.738281 130.988281 5.054688 0 10.054688-.203125 15-.585938-93.539062-7.234374-167.074219-81.476562-167.074219-172.007812zm0 0" fill="#dfb297"/><path d="m336.660156 259.929688h-25.1875c-4.140625 0-7.5-3.355469-7.5-7.5 0-4.140626 3.359375-7.5 7.5-7.5h25.1875c4.144532 0 7.5 3.359374 7.5 7.5 0 4.144531-3.355468 7.5-7.5 7.5zm0 0" fill="#f98084"/><path d="m146.441406 259.929688h-25.1875c-4.140625 0-7.5-3.355469-7.5-7.5 0-4.140626 3.359375-7.5 7.5-7.5h25.1875c4.144532 0 7.5 3.359374 7.5 7.5 0 4.144531-3.355468 7.5-7.5 7.5zm0 0" fill="#f98084"/><path d="m324.066406 232.746094c4.144532 0 7.5-3.355469 7.5-7.5v-18.492188c0-4.144531-3.355468-7.5-7.5-7.5-4.140625 0-7.5 3.355469-7.5 7.5v18.492188c0 4.144531 3.359375 7.5 7.5 7.5zm0 0"/><path d="m133.847656 232.746094c4.144532 0 7.5-3.355469 7.5-7.5v-18.492188c0-4.144531-3.355468-7.5-7.5-7.5-4.140625 0-7.5 3.355469-7.5 7.5v18.492188c0 4.144531 3.359375 7.5 7.5 7.5zm0 0"/><path d="m250.90625 238.210938c-3.121094-2.726563-7.855469-2.410157-10.582031.710937-2.757813 3.152344-6.902344 4.960937-11.367188 4.960937-4.464843 0-8.605469-1.808593-11.363281-4.960937-2.726562-3.117187-7.464844-3.4375-10.582031-.710937-3.121094 2.726562-3.4375 7.464843-.710938 10.582031 5.605469 6.414062 13.863281 10.089843 22.65625 10.089843 8.796875 0 17.054688-3.675781 22.660157-10.089843 2.726562-3.117188 2.40625-7.855469-.710938-10.582031zm0 0"/><path d="m411.242188 267.660156c25.476562-.113281 46.175781-20.871094 46.175781-46.378906 0-11.984375-4.570313-22.917969-12.058594-31.160156-8.519531-75.605469-49.019531-140.261719-72.601563-172.265625-10.191406-13.832031-27.65625-20.46875-44.492187-16.90625-18.589844 3.9375-50.914063 8.628906-99.308594 8.628906-30.511719 0-59.976562 5.871094-87.578125 17.449219-3.820312 1.605468-5.617187 6-4.015625 9.820312 1.601563 3.820313 6 5.617188 9.816407 4.011719 25.753906-10.800781 53.269531-16.28125 81.777343-16.28125 49.691407 0 83.121094-4.867187 102.414063-8.953125 11.097656-2.347656 22.601562 2.019531 29.308594 11.125 21.261718 28.859375 56.839843 85.234375 67.914062 151.585938-2.617188-1.070313-5.335938-1.890626-8.121094-2.464844-2.4375-.503906-4.914062-.804688-7.398437-.925782-3.042969-11.738281-7.34375-23.175781-12.90625-34.234374-8.925781-17.78125-23.035157-30.375-41.796875-37.15625-22.917969-8.289063-48.195313-11.175782-72.433594-11.574219-33.871094-.558594-67.449219 4.40625-101.117188 7.316406-19.453124 1.679687-39.125 2.6875-58.609374.9375-6.875-.617187-13.730469-2.238281-20.660157-2.019531-9.289062.246094-18.1875 3.65625-25.300781 9.644531-3.320312 2.792969-6.046875 6.132813-8.550781 9.660156-9.039063 12.742188-16.507813 26.800781-21.894531 41.546875-.007813.015625-.011719.027344-.015626.039063-1.898437 5.203125-3.542968 10.488281-4.925781 15.839843-.070312.003907-.136719.007813-.207031.011719-4.695312.234375-9.296875 1.152344-13.714844 2.765625-.226562.082032-.453125.160156-.679687.246094 8.050781-36.78125 27.042969-70.085938 55.535156-97.09375 10.433594-9.890625 21.96875-18.699219 34.285156-26.1875 3.542969-2.152344 4.667969-6.765625 2.515625-10.304688-2.152344-3.539062-6.765625-4.664062-10.304687-2.515624-13.226563 8.042968-25.613281 17.503906-36.816407 28.121093-34.515624 32.71875-56.097656 74.078125-62.542968 119.734375-7.707032 8.285156-12.433594 19.378906-12.433594 31.558594 0 25.507812 20.695312 46.265625 46.175781 46.378906 14.695313 48.726563 50.507813 89.054688 97.382813 111.453125-9.800782 5.984375-21.722656 14.972657-32.894532 27.960938-22.460937 26.113281-33.851562 58.894531-33.851562 97.425781 0 4.140625 3.359375 7.5 7.5 7.5h288.289062c4.144532 0 7.5-3.359375 7.5-7.5 0-38.53125-11.386718-71.3125-33.851562-97.425781-11.167969-12.988281-23.09375-21.976563-32.890625-27.960938 46.875-22.398437 82.6875-62.726562 97.382813-111.453125zm3.847656-15.257812c1.992187-9.8125 3.128906-19.816406 3.386718-29.824219.273438-10.773437-.445312-21.597656-2.167968-32.234375 5.507812.9375 10.53125 3.3125 14.667968 6.726562 7.179688 5.925782 11.441407 14.902344 11.441407 24.210938 0 15.929688-11.929688 29.125-27.328125 31.121094zm-372.265625 0c-15.394531-1.996094-27.324219-15.191406-27.324219-31.121094 0-15.050781 11.289062-28.425781 26.121094-30.9375-1.484375 9.121094-2.242188 18.402344-2.242188 27.777344 0 11.410156 1.164063 23.046875 3.445313 34.28125zm241.964843 244.597656h-21.453124c-1.089844-33.527344-9.035157-66.589844-11.832032-77.292969 6.921875-9.902343 10.710938-18.296875 12.78125-24.613281 6.917969-1.242188 13.761719-2.847656 20.503906-4.820312zm-74.113281-99.613281c2.742188.25 5.492188.441406 8.253907.578125 6.679687.332031 13.378906.324218 20.058593 0 2.761719-.136719 5.511719-.332032 8.253907-.578125-1.78125 3.804687-4.269532 8.300781-7.753907 13.335937h-21.058593c-3.484376-5.035156-5.976563-9.53125-7.753907-13.335937zm-52.546875-9.039063v108.652344h-23.730468v-31.78125c0-4.144531-3.355469-7.5-7.5-7.5-4.140626 0-7.5 3.355469-7.5 7.5v31.78125h-26.921876c2.929688-67.355469 45.0625-97.765625 65.652344-108.652344zm15 1.925782c6.742188 1.972656 13.582032 3.582031 20.503906 4.820312 2.070313 6.316406 5.855469 14.710938 12.777344 24.613281-2.792968 10.703125-10.742187 43.765625-11.832031 77.292969h-21.449219zm36.457032 106.726562c1.039062-29.539062 7.785156-59.328125 10.78125-71.277344h17.183593c2.996094 11.953125 9.738281 41.738282 10.777344 71.277344zm155.855468 0h-26.925781v-31.78125c0-4.144531-3.355469-7.5-7.5-7.5-4.140625 0-7.5 3.355469-7.5 7.5v31.78125h-23.726563v-108.652344c20.585938 10.886719 62.722657 41.296875 65.652344 108.652344zm-108.988281-115.839844c-18.183594 2.734375-36.804687 2.722656-54.992187 0-69.925782-10.503906-126.148438-60.414062-142.351563-124.828125-5.847656-23.246093-6.261719-48.425781-1.035156-72.128906 4.078125-18.472656 11.59375-36.277344 21.929687-52.210937 2.878906-4.4375 5.78125-9.207032 9.875-12.636719 4.492188-3.769531 10.148438-5.972657 16.027344-6.152344 3.929688-.117187 7.796875.753906 11.679688 1.214844 23.515624 2.792969 47.269531 1.726562 70.792968-.382813 28.625-2.554687 57.160156-6.515625 85.929688-7.027344.128906 0 .261718 0 .390625-.003906 27.113281-.507812 54.484375 2.480469 80.273437 11.140625 16.617188 5.578125 27.359375 19.300781 34.394532 34.75.074218.164063.144531.328125.21875.492188 4.472656 9.917969 7.914062 20.246093 10.253906 30.824219 5.222656 23.652343 4.953125 48.613281-1.03125 72.101562-16.195313 64.425781-72.421875 114.339844-142.355469 124.847656zm0 0"/></svg>